<svg width="24" height="24" viewBox="0 0 24 24" fill="none" xmlns="http://www.w3.org/2000/svg">
<path d="M12 1.12587L12.8675 2.87604L12.8756 2.89239C12.9917 3.12655 13.091 3.32699 13.1848 3.48501C13.2829 3.65021 13.3968 3.80799 13.5582 3.93346L13.865 3.5387L13.5582 3.93346C13.8774 4.1816 14.2833 4.29036 14.6838 4.23508C14.8864 4.20713 15.0639 4.12743 15.2314 4.0334C15.3917 3.94345 15.5779 3.81953 15.7956 3.67476L15.8107 3.66467L17.4371 2.58273L17.3132 4.53216L17.3121 4.55039C17.2955 4.8112 17.2813 5.03446 17.2836 5.2182C17.2859 5.41032 17.3056 5.6039 17.3827 5.79327C17.5351 6.16778 17.8322 6.46491 18.2067 6.6173C18.3961 6.69436 18.5897 6.71409 18.7818 6.71643C18.9656 6.71867 19.1888 6.70448 19.4497 6.68791L19.4678 6.68675L21.4173 6.56293L20.3353 8.18929L20.3253 8.20439C20.1805 8.42202 20.0566 8.60831 19.9666 8.76858C19.8726 8.93612 19.7929 9.11363 19.7649 9.31616L20.2602 9.38453L19.7649 9.31617C19.7096 9.7167 19.8184 10.1226 20.0665 10.4418C20.192 10.6032 20.3498 10.7171 20.515 10.8152C20.673 10.909 20.8735 11.0084 21.1077 11.1244L21.124 11.1325L22.8741 12L21.124 12.8675L21.1077 12.8756C20.8735 12.9916 20.673 13.091 20.515 13.1848C20.3498 13.2829 20.192 13.3968 20.0665 13.5582C19.8184 13.8774 19.7096 14.2833 19.7649 14.6838L20.2602 14.6155L19.7649 14.6838C19.7929 14.8864 19.8726 15.0639 19.9666 15.2314C20.0566 15.3917 20.1805 15.578 20.3253 15.7956L20.3353 15.8107L21.4173 17.4371L19.4678 17.3132L19.4496 17.3121C19.1888 17.2955 18.9655 17.2813 18.7818 17.2836C18.5897 17.2859 18.3961 17.3056 18.2067 17.3827C17.8322 17.5351 17.5351 17.8322 17.3827 18.2067C17.3056 18.3961 17.2859 18.5897 17.2836 18.7818C17.2813 18.9655 17.2955 19.1888 17.3121 19.4496L17.3132 19.4678L17.4371 21.4173L15.8107 20.3353L15.7956 20.3253C15.578 20.1805 15.3917 20.0566 15.2314 19.9666C15.0639 19.8726 14.8864 19.7929 14.6838 19.7649L14.6155 20.2602L14.6838 19.7649C14.2833 19.7096 13.8774 19.8184 13.5582 20.0665C13.3968 20.192 13.2829 20.3498 13.1848 20.515C13.091 20.673 12.9916 20.8735 12.8756 21.1077L12.8675 21.124L12 22.8741L11.1325 21.124L11.1244 21.1077C11.0084 20.8735 10.909 20.673 10.8152 20.515C10.7171 20.3498 10.6032 20.192 10.4418 20.0665C10.1226 19.8184 9.7167 19.7096 9.31617 19.7649L9.38453 20.2602L9.31616 19.7649C9.11363 19.7929 8.93612 19.8726 8.76858 19.9666C8.60831 20.0566 8.42202 20.1805 8.20439 20.3253L8.18929 20.3353L6.56293 21.4173L6.68675 19.4678L6.68791 19.4497C6.70448 19.1888 6.71867 18.9656 6.71643 18.7818C6.71409 18.5897 6.69436 18.3961 6.6173 18.2067C6.46491 17.8322 6.16778 17.5351 5.79327 17.3827C5.6039 17.3056 5.41032 17.2859 5.2182 17.2836C5.03446 17.2813 4.8112 17.2955 4.55039 17.3121L4.53216 17.3132L2.58273 17.4371L3.66467 15.8107L3.67476 15.7956C3.81953 15.5779 3.94345 15.3917 4.0334 15.2314C4.12743 15.0639 4.20713 14.8864 4.23508 14.6838C4.29036 14.2833 4.1816 13.8774 3.93346 13.5582L3.5387 13.865L3.93346 13.5582C3.80799 13.3968 3.65021 13.2829 3.48501 13.1848C3.32699 13.091 3.12655 12.9917 2.89239 12.8756L2.87604 12.8675L1.12587 12L2.87604 11.1325L2.89239 11.1244C3.12655 11.0083 3.32699 10.909 3.48501 10.8152C3.65021 10.7171 3.80799 10.6032 3.93346 10.4418L3.5387 10.135L3.93346 10.4418C4.1816 10.1226 4.29036 9.7167 4.23508 9.31617C4.20713 9.11364 4.12743 8.93612 4.0334 8.76858C3.94345 8.60832 3.81953 8.42205 3.67476 8.20445L3.66467 8.18929L2.58273 6.56293L4.53216 6.68675L4.55035 6.68791C4.81118 6.70448 5.03445 6.71867 5.2182 6.71643C5.41031 6.71409 5.6039 6.69436 5.79327 6.6173C6.16778 6.46491 6.46491 6.16778 6.6173 5.79327C6.69436 5.6039 6.71409 5.41031 6.71643 5.2182C6.71867 5.03445 6.70448 4.81118 6.68791 4.55035L6.68675 4.53216L6.56293 2.58273L8.18929 3.66467L8.20445 3.67476C8.42205 3.81953 8.60832 3.94345 8.76858 4.0334C8.93612 4.12743 9.11364 4.20713 9.31617 4.23508C9.7167 4.29036 10.1226 4.1816 10.4418 3.93346L10.135 3.5387L10.4418 3.93346C10.6032 3.80799 10.7171 3.65021 10.8152 3.48501C10.909 3.32699 11.0083 3.12655 11.1244 2.89239L11.1325 2.87604L12 1.12587ZM15.0318 8.20933L11.2099 12.8892L10.0451 11.1142C9.66629 10.537 8.89135 10.3762 8.31418 10.7549C7.73701 11.1337 7.57617 11.9087 7.95494 12.4858L10.616 16.5408L10.9901 17.1108L11.4213 16.5827L16.9682 9.79067C17.4048 9.25597 17.3254 8.46851 16.7907 8.03183C16.256 7.59516 15.4685 7.67463 15.0318 8.20933Z" fill="black" stroke="black"/>
</svg>
