<svg width="4000" height="4000" viewBox="0 0 4000 4000" fill="none" xmlns="http://www.w3.org/2000/svg">
<g clip-path="url(#clip0_1_15)">
<path d="M2041.61 0C1613.51 0 1215.81 129.921 887.159 351.436L1029.99 3736.6C1240.56 3854.83 1474.15 3937.26 1722.92 3975.61L2310.21 17.2147C2222.22 5.94869 2132.64 0 2041.61 0ZM735.346 464.201C286.418 831.38 0 1383.55 0 1999.95C0 2117.98 10.7145 2233.52 30.6889 2345.93L810.88 2261.72L735.346 464.201ZM2464.33 43.1584L1879.08 3993.61C1932.64 3997.72 1987.04 4000 2041.61 4000C2298.64 4000 2544.52 3953.06 2771.16 3867.94L3557.58 661.822C3273.78 353.626 2893.73 132.041 2464.33 43.1584ZM4000 2565.82L3265.67 2509.54L2951.61 3790.04C3453.66 3544.22 3838.48 3101.55 4000 2565.82Z" fill="white"/>
</g>
<defs>
<clipPath id="clip0_1_15">
<rect width="4000" height="4000" fill="white"/>
</clipPath>
</defs>
</svg>
